<?xml version="1.0" encoding="UTF-8"?>
<svg id="_レイヤー_1" data-name="レイヤー 1" xmlns="http://www.w3.org/2000/svg" viewBox="0 0 365.89 409.43">
  <defs>
    <style>
      .cls-1, .cls-2, .cls-3 {
        stroke-width: 0px;
      }

      .cls-4 {
        fill: none;
        stroke: #b3b3b3;
        stroke-linecap: round;
        stroke-miterlimit: 10;
        stroke-width: 10px;
      }

      .cls-2 {
        fill: #b3b3b3;
      }

      .cls-3 {
        fill: #fff;
      }
    </style>
  </defs>
  <circle class="cls-1" cx="182.94" cy="219.53" r="182.94"/>
  <circle class="cls-2" cx="182.94" cy="219.53" r="128.97"/>
  <path class="cls-2" d="M165.66,131.06l45.92-57.71c.58-.73,1.73-.98,2.94-.63l2.61.75c25.5,7.38,49.83,20.49,70.07,37.74l3.52,3c.97.82,1.4,1.94,1.09,2.84l-23.88,69.69-102.27-55.68Z"/>
  <path class="cls-1" d="M119.54,361.88l-13.41,45.42c-.17.58-.54,1.01-.95,1.1l-.89.2c-8.7,2-17.2.33-24.46-4.79l-1.27-.89c-.35-.25-.52-.8-.45-1.4l5.71-46.99,35.72,7.35Z"/>
  <path class="cls-1" d="M250.45,361.88l13.41,45.42c.17.58.54,1.01.95,1.1l.89.2c8.7,2,17.2.33,24.46-4.79l1.27-.89c.35-.25.52-.8.45-1.4l-5.71-46.99-35.72,7.35Z"/>
  <path class="cls-1" d="M248.69,16.96c14.4-21.34,49.67-22.72,78.78-3.09,29.11,19.64,41.04,52.86,26.65,74.21s-26.95-10.96-56.06-30.6c-29.11-19.64-63.77-19.18-49.37-40.52Z"/>
  <path class="cls-1" d="M117.19,16.96c-14.4-21.34-49.67-22.72-78.78-3.09S-2.63,66.73,11.76,88.08s26.95-10.96,56.06-30.6,63.77-19.18,49.37-40.52Z"/>
  <circle class="cls-1" cx="182.94" cy="219.53" r="6.67"/>
  <path class="cls-1" d="M261.72,267.27l-22.41,2.46c-.46.05-.91-.1-1.26-.4l-47.87-42.54c-1.46-1.3.19-3.6,1.89-2.63l70.28,40.09c1.37.78.94,2.86-.63,3.03Z"/>
  <path class="cls-1" d="M77.36,283.95l31,3.4c.63.07,1.26-.13,1.74-.55l66.22-58.85c2.02-1.8-.26-4.98-2.61-3.64l-97.22,55.45c-1.89,1.08-1.3,3.95.87,4.19Z"/>
  <ellipse class="cls-3" cx="220.83" cy="185.26" rx="6.32" ry="12.24"/>
  <ellipse class="cls-3" cx="145.05" cy="185.26" rx="6.32" ry="12.24"/>
  <rect class="cls-1" x="173.59" y="15.14" width="18.71" height="28.1"/>
  <rect class="cls-1" x="151.37" y="4.59" width="63.15" height="21.08" rx="10.54" ry="10.54"/>
  <circle class="cls-1" cx="182.94" cy="219.53" r="182.94"/>
  <circle class="cls-2" cx="182.94" cy="219.53" r="128.97"/>
  <path class="cls-2" d="M165.66,131.06l45.92-57.71c.58-.73,1.73-.98,2.94-.63l2.61.75c25.5,7.38,49.83,20.49,70.07,37.74l3.52,3c.97.82,1.4,1.94,1.09,2.84l-23.88,69.69-102.27-55.68Z"/>
  <path class="cls-1" d="M119.54,361.88l-13.41,45.42c-.17.58-.54,1.01-.95,1.1l-.89.2c-8.7,2-17.2.33-24.46-4.79l-1.27-.89c-.35-.25-.52-.8-.45-1.4l5.71-46.99,35.72,7.35Z"/>
  <path class="cls-1" d="M250.45,361.88l13.41,45.42c.17.58.54,1.01.95,1.1l.89.2c8.7,2,17.2.33,24.46-4.79l1.27-.89c.35-.25.52-.8.45-1.4l-5.71-46.99-35.72,7.35Z"/>
  <path class="cls-1" d="M248.69,16.96c14.4-21.34,49.67-22.72,78.78-3.09,29.11,19.64,41.04,52.86,26.65,74.21s-26.95-10.96-56.06-30.6c-29.11-19.64-63.77-19.18-49.37-40.52Z"/>
  <path class="cls-1" d="M117.19,16.96c-14.4-21.34-49.67-22.72-78.78-3.09S-2.63,66.73,11.76,88.08s26.95-10.96,56.06-30.6,63.77-19.18,49.37-40.52Z"/>
  <circle class="cls-1" cx="182.94" cy="219.53" r="6.67"/>
  <path class="cls-1" d="M261.72,267.27l-22.41,2.46c-.46.05-.91-.1-1.26-.4l-47.87-42.54c-1.46-1.3.19-3.6,1.89-2.63l70.28,40.09c1.37.78.94,2.86-.63,3.03Z"/>
  <path class="cls-1" d="M77.36,283.95l31,3.4c.63.07,1.26-.13,1.74-.55l66.22-58.85c2.02-1.8-.26-4.98-2.61-3.64l-97.22,55.45c-1.89,1.08-1.3,3.95.87,4.19Z"/>
  <ellipse class="cls-3" cx="220.83" cy="185.26" rx="6.32" ry="12.24"/>
  <ellipse class="cls-3" cx="145.05" cy="185.26" rx="6.32" ry="12.24"/>
  <rect class="cls-1" x="173.59" y="15.14" width="18.71" height="28.1"/>
  <rect class="cls-1" x="151.37" y="4.59" width="63.15" height="21.08" rx="10.54" ry="10.54"/>
  <path class="cls-4" d="M249.33,95.1c12.96-12.96,31.38-11.45,42.57-6.8,14.95,6.21,22.97,19.23,25.7,29.69,4.22,16.23-2.71,22.38.6,35.1,3.97,15.24,17.67,23,17.67,23"/>
</svg>